<svg xmlns="http://www.w3.org/2000/svg" width="823.88" height="227.47" viewBox="0 0 823.88 227.47"><defs><style>.cls-1{fill:#970f39;}.cls-2{fill:#662d91;}</style></defs><title>Asset 3</title><g id="Layer_2" data-name="Layer 2"><g id="Layer_1-2" data-name="Layer 1"><polygon class="cls-1" points="113.73 0 113.73 0 130.48 39.39 96.99 39.39 113.73 0"/><polygon class="cls-1" points="113.73 227.47 113.73 227.47 130.48 188.08 96.99 188.08 113.73 227.47"/><polygon class="cls-1" points="227.47 113.73 227.47 113.73 187.94 130.48 187.94 96.99 227.47 113.73"/><polygon class="cls-1" points="0 113.73 0 113.73 35.96 130.48 35.96 96.99 0 113.73"/><polygon class="cls-1" points="194.16 194.16 194.16 194.16 154.46 178.15 178.15 154.46 194.16 194.16"/><polygon class="cls-1" points="33.31 33.31 33.31 33.31 47.15 70.83 70.83 47.15 33.31 33.31"/><polygon class="cls-1" points="194.16 33.31 194.16 33.31 178.15 73 154.46 49.32 194.16 33.31"/><path class="cls-2" d="M28.26,215.74a9.27,9.27,0,0,1-5.91-16.41c14-11.58,21.25-17.91,24.55-22.57,2.72-3.84,8.46-8.15,15.68-7.61,6.79.5,10.82,5.41,12.34,7.26l.17.21c5.92,5.74,19.85,9.23,31.12,10.14a75.58,75.58,0,0,0,74.26-42.89c15.39-32.79-1.62-75.13-27.11-91.07-26.31-16.46-67.52-20.47-95.83,9.62C48,72.58,32.9,94.43,39.48,126.49c1.4,6.8,3.95,11.59,6.82,12.81,2,.85,4.3-.14,5.67-1,2.78-3.23,7.23-17.95,9.91-26.8C68.94,88.18,73.61,72.75,86,72.75c12.56,0,16.42,15.28,21.31,34.63,1.43,5.67,3.53,14,5.58,19.45,2.2-5.22,4.58-13,6.21-18.34,5.95-19.45,10.65-34.82,23.42-34.82,16.57,0,21.9,24.12,29.27,57.5.66,3,1.33,6,2,9a9.27,9.27,0,0,1-18.08,4.08c-.68-3-1.36-6.08-2-9.11-2.42-11-4.71-21.33-7.24-29.7A77.2,77.2,0,0,0,143,95.82c-2.15,5-4.52,12.81-6.14,18.1C131,132.84,126,149.19,113.21,149.66c-11,.41-15.73-11.5-17.29-15.41-2.54-6.38-4.59-14.49-6.57-22.33-1-3.89-2.32-9.19-3.69-13.66-2.15,5.79-4.42,13.3-6,18.65-6.18,20.42-10,32.2-17.37,36.87s-15.89,5.67-23.18,2.58c-6.19-2.62-14.28-9.29-17.74-26.15C12.75,88.45,34.35,60,44,49.72a88.1,88.1,0,0,1,58.8-27.87,101.11,101.11,0,0,1,60.35,15.24c16.67,10.43,30.13,28.7,36.9,50.12,7.13,22.52,6.12,45.44-2.85,64.54a94.17,94.17,0,0,1-92.54,53.49c-8.9-.72-30.91-3.69-42.87-15.66-.28-.28-.53-.55-.75-.82-4.64,6.06-12.06,12.58-26.92,24.86A9.24,9.24,0,0,1,28.26,215.74ZM51.82,138.5Z"/><path class="cls-2" d="M241.55,129.61a3.22,3.22,0,0,1-1-2.37V95.43a3.35,3.35,0,0,1,1-2.41,3.16,3.16,0,0,1,2.37-1,3.42,3.42,0,0,1,3.41,3.41v3a18.47,18.47,0,0,1,5-4.89,13.6,13.6,0,0,1,7.6-1.93,11.53,11.53,0,0,1,7.12,2.22,12.42,12.42,0,0,1,4.23,5.41,14.93,14.93,0,0,1,13.64-7.64,11.27,11.27,0,0,1,6.93,2.08A12.39,12.39,0,0,1,296,99.07a17.85,17.85,0,0,1,1.33,6.82v21.35a3.16,3.16,0,0,1-1,2.37,3.35,3.35,0,0,1-2.41,1,3.29,3.29,0,0,1-3.34-3.34v-20q0-4.82-1.71-7.08T283,97.88a9.79,9.79,0,0,0-6.26,2,19,19,0,0,0-4.41,5.15v22.24a3.16,3.16,0,0,1-1,2.37,3.35,3.35,0,0,1-2.41,1,3.29,3.29,0,0,1-3.34-3.34v-20q0-4.82-1.71-7.08T258,97.88a9.79,9.79,0,0,0-6.26,2,19,19,0,0,0-4.41,5.15v22.24a3.16,3.16,0,0,1-1,2.37,3.35,3.35,0,0,1-2.41,1A3.23,3.23,0,0,1,241.55,129.61Z"/><path class="cls-2" d="M314.17,146.66a3.2,3.2,0,0,1-.93-2.3,3.35,3.35,0,0,1,.22-1.19l4.82-12.38-13.94-34a3.78,3.78,0,0,1-.3-1.41A3.35,3.35,0,0,1,305,93a3.16,3.16,0,0,1,2.37-1,3.24,3.24,0,0,1,1.89.59,3.38,3.38,0,0,1,1.22,1.48l11.42,28.32,11.64-28.17A3.24,3.24,0,0,1,336.67,92,3.17,3.17,0,0,1,339,93a3.35,3.35,0,0,1,1,2.41,3.56,3.56,0,0,1-.22,1.26l-20.24,48.63a3.34,3.34,0,0,1-3.11,2.3A3,3,0,0,1,314.17,146.66Z"/><path class="cls-2" d="M349.42,129.61a3.22,3.22,0,0,1-1-2.37V83a4.76,4.76,0,0,1,1.41-3.45,4.58,4.58,0,0,1,3.41-1.45h2.45a4.49,4.49,0,0,1,2.71.89,5.46,5.46,0,0,1,1.82,2.22l16.83,42,16.83-42A5.45,5.45,0,0,1,395.72,79a4.49,4.49,0,0,1,2.71-.89h2.45a4.59,4.59,0,0,1,3.41,1.45A4.77,4.77,0,0,1,405.69,83v44.26a3.29,3.29,0,0,1-3.34,3.34,3.36,3.36,0,0,1-2.41-1,3.17,3.17,0,0,1-1-2.37V85.13l-17.12,42.33a5,5,0,0,1-1.89,2.26,5.21,5.21,0,0,1-5.71,0,5,5,0,0,1-1.89-2.26L355.2,85.13v42.11a3.17,3.17,0,0,1-1,2.37,3.36,3.36,0,0,1-2.41,1A3.23,3.23,0,0,1,349.42,129.61Z"/><path class="cls-2" d="M418.51,83.57a3.64,3.64,0,0,1-1.11-2.67v-.3a3.8,3.8,0,0,1,3.78-3.78h.44a3.8,3.8,0,0,1,3.78,3.78v.3a3.8,3.8,0,0,1-3.78,3.78h-.44A3.64,3.64,0,0,1,418.51,83.57Zm.44,46a3.22,3.22,0,0,1-1-2.37V95.43A3.35,3.35,0,0,1,419,93a3.16,3.16,0,0,1,2.37-1,3.3,3.3,0,0,1,3.41,3.41v31.8a3.16,3.16,0,0,1-1,2.37,3.36,3.36,0,0,1-2.41,1A3.23,3.23,0,0,1,419,129.61Z"/><path class="cls-2" d="M437.42,129.61a3.22,3.22,0,0,1-1-2.37V95.43a3.35,3.35,0,0,1,1-2.41,3.16,3.16,0,0,1,2.37-1,3.42,3.42,0,0,1,3.41,3.41v3a24.65,24.65,0,0,1,6.08-5A15.36,15.36,0,0,1,457,91.65a12.83,12.83,0,0,1,7.08,1.93,12.55,12.55,0,0,1,4.6,5.26,16.81,16.81,0,0,1,1.59,7.34v21.05a3.16,3.16,0,0,1-1,2.37,3.35,3.35,0,0,1-2.41,1,3.29,3.29,0,0,1-3.34-3.34V106.92q0-9-8.16-9a11.8,11.8,0,0,0-6.63,1.93A24,24,0,0,0,443.2,105v22.24a3.16,3.16,0,0,1-1,2.37,3.36,3.36,0,0,1-2.41,1A3.23,3.23,0,0,1,437.42,129.61Z"/><path class="cls-2" d="M488.53,128.61a17.71,17.71,0,0,1-6.67-6.82,22.79,22.79,0,0,1,0-21A17.72,17.72,0,0,1,488.53,94a17.38,17.38,0,0,1,8.71-2.33,17,17,0,0,1,12.68,5.63V79.12a3.25,3.25,0,0,1,1-2.45,3.36,3.36,0,0,1,2.41-1,3.17,3.17,0,0,1,2.37,1,3.35,3.35,0,0,1,1,2.41v48.11a3.29,3.29,0,0,1-3.34,3.34,3.36,3.36,0,0,1-2.41-1,3.16,3.16,0,0,1-1-2.37v-1.93a17,17,0,0,1-12.68,5.63A17.38,17.38,0,0,1,488.53,128.61Zm16.09-5.49a18.31,18.31,0,0,0,5.3-4V103.51a18.32,18.32,0,0,0-5.3-4A14,14,0,0,0,498.21,98a11.65,11.65,0,0,0-8.82,3.48q-3.34,3.49-3.34,9.86t3.34,9.86a11.65,11.65,0,0,0,8.82,3.48A14,14,0,0,0,504.62,123.12Z"/><path class="cls-2" d="M527.71,127.39a3.35,3.35,0,0,1-1.48-1.22,3.16,3.16,0,0,1,.26-4,2.84,2.84,0,0,1,2.19-.93,3.44,3.44,0,0,1,1.41.3,35.46,35.46,0,0,0,14.61,3q13,0,13-8.53a4.76,4.76,0,0,0-1.67-3.71,12.13,12.13,0,0,0-4.12-2.34q-2.45-.85-7-2a89.2,89.2,0,0,1-9.71-3,16.92,16.92,0,0,1-6.38-4.34,10.92,10.92,0,0,1-2.67-7.71,13.86,13.86,0,0,1,2.22-7.67,15.31,15.31,0,0,1,6.56-5.49,24.33,24.33,0,0,1,10.42-2,42.19,42.19,0,0,1,14.75,2.45,2.89,2.89,0,0,1,2.08,3,3.24,3.24,0,0,1-.82,2.15,2.68,2.68,0,0,1-2.15,1,3.4,3.4,0,0,1-1.19-.3,36.25,36.25,0,0,0-11.94-2,18.18,18.18,0,0,0-9.53,2.22,6.93,6.93,0,0,0-3.67,6.23,5.73,5.73,0,0,0,1.74,4.34A12,12,0,0,0,539,99.33a68.63,68.63,0,0,0,7.15,2,74.72,74.72,0,0,1,9.45,2.82,15.49,15.49,0,0,1,6.15,4.37,11.84,11.84,0,0,1,2.56,8,12.45,12.45,0,0,1-2.37,7.45,15.57,15.57,0,0,1-6.67,5.15,24.91,24.91,0,0,1-9.93,1.85A44,44,0,0,1,527.71,127.39Z"/><path class="cls-2" d="M579.61,129.68a4.53,4.53,0,0,1-1.63-2.22L567.45,96.62a4,4,0,0,1-.22-1.26A3.29,3.29,0,0,1,570.56,92a3.4,3.4,0,0,1,1.89.56A2.74,2.74,0,0,1,573.6,94l8.67,28.54,8.6-27.87a3.81,3.81,0,0,1,7.27,0l8.6,27.87L615.42,94a2.73,2.73,0,0,1,1.15-1.45,3.39,3.39,0,0,1,1.89-.56,3.29,3.29,0,0,1,3.34,3.34,4,4,0,0,1-.22,1.26L611,127.46a4.54,4.54,0,0,1-1.63,2.22,4.45,4.45,0,0,1-5.34,0,4.94,4.94,0,0,1-1.71-2.3l-7.86-24.54-7.86,24.54a5,5,0,0,1-1.71,2.3,4.45,4.45,0,0,1-5.34,0Z"/><path class="cls-2" d="M632,125.79q-5.08-5.15-5.08-14.49a24.15,24.15,0,0,1,1.93-9.71,16.51,16.51,0,0,1,5.93-7.19,17,17,0,0,1,9.86-2.74,17.24,17.24,0,0,1,9.49,2.56,16.54,16.54,0,0,1,6.08,6.82,21,21,0,0,1,2.08,9.3,3.24,3.24,0,0,1-3.41,3.34H633.73a12.18,12.18,0,0,0,3.86,8.08q3.26,2.89,9.12,2.89a22.23,22.23,0,0,0,5.45-.59,22.58,22.58,0,0,0,4.56-1.71,3.09,3.09,0,0,1,3.41.52,2.69,2.69,0,0,1,.89,2.08,3.2,3.2,0,0,1-1.93,2.74,23.15,23.15,0,0,1-13,3.26Q637.06,130.94,632,125.79Zm23.61-17.61a11.88,11.88,0,0,0-1.89-6.08,10.21,10.21,0,0,0-4.11-3.59,11.31,11.31,0,0,0-9.93,0,10,10,0,0,0-4.08,3.59,12.1,12.1,0,0,0-1.85,6.08Z"/><path class="cls-2" d="M673.95,125.79q-5.08-5.15-5.08-14.49a24.15,24.15,0,0,1,1.93-9.71,16.51,16.51,0,0,1,5.93-7.19,17,17,0,0,1,9.86-2.74,17.24,17.24,0,0,1,9.49,2.56,16.54,16.54,0,0,1,6.08,6.82,21,21,0,0,1,2.08,9.3,3.24,3.24,0,0,1-3.41,3.34H675.69a12.18,12.18,0,0,0,3.86,8.08q3.26,2.89,9.12,2.89a22.23,22.23,0,0,0,5.45-.59,22.58,22.58,0,0,0,4.56-1.71,3.09,3.09,0,0,1,3.41.52,2.69,2.69,0,0,1,.89,2.08,3.2,3.2,0,0,1-1.93,2.74,23.15,23.15,0,0,1-13,3.26Q679,130.94,673.95,125.79Zm23.61-17.61a11.88,11.88,0,0,0-1.89-6.08,10.21,10.21,0,0,0-4.11-3.59,11.31,11.31,0,0,0-9.93,0,10,10,0,0,0-4.08,3.59,12.1,12.1,0,0,0-1.85,6.08Z"/><path class="cls-2" d="M714.09,146.62a3.35,3.35,0,0,1-1-2.41V95.36A3.29,3.29,0,0,1,716.46,92a3.36,3.36,0,0,1,2.41,1,3.16,3.16,0,0,1,1,2.37v1.93a17,17,0,0,1,12.68-5.63A17.38,17.38,0,0,1,741.26,94a17.72,17.72,0,0,1,6.67,6.82,22.79,22.79,0,0,1,0,21,17.71,17.71,0,0,1-6.67,6.82,17.38,17.38,0,0,1-8.71,2.33,17,17,0,0,1-12.68-5.63v18.9a3.3,3.3,0,0,1-3.41,3.41A3.16,3.16,0,0,1,714.09,146.62Zm26.32-25.47q3.34-3.48,3.34-9.86t-3.34-9.86A11.65,11.65,0,0,0,731.59,98a14,14,0,0,0-6.41,1.52,18.33,18.33,0,0,0-5.3,4v15.57a18.31,18.31,0,0,0,5.3,4,14,14,0,0,0,6.41,1.52A11.65,11.65,0,0,0,740.41,121.16Z"/><path class="cls-2" d="M762.68,125.79q-5.08-5.15-5.08-14.49a24.15,24.15,0,0,1,1.93-9.71,16.51,16.51,0,0,1,5.93-7.19,17,17,0,0,1,9.86-2.74,17.24,17.24,0,0,1,9.49,2.56,16.54,16.54,0,0,1,6.08,6.82,21,21,0,0,1,2.08,9.3,3.24,3.24,0,0,1-3.41,3.34H764.43a12.18,12.18,0,0,0,3.86,8.08q3.26,2.89,9.12,2.89a22.23,22.23,0,0,0,5.45-.59,22.58,22.58,0,0,0,4.56-1.71,3.09,3.09,0,0,1,3.41.52,2.69,2.69,0,0,1,.89,2.08,3.2,3.2,0,0,1-1.93,2.74,23.15,23.15,0,0,1-13,3.26Q767.76,130.94,762.68,125.79Zm23.61-17.61a11.88,11.88,0,0,0-1.89-6.08,10.21,10.21,0,0,0-4.11-3.59,11.31,11.31,0,0,0-9.93,0,10,10,0,0,0-4.08,3.59,12.1,12.1,0,0,0-1.85,6.08Z"/><path class="cls-2" d="M802.83,129.61a3.22,3.22,0,0,1-1-2.37V95.43a3.35,3.35,0,0,1,1-2.41,3.16,3.16,0,0,1,2.37-1,3.42,3.42,0,0,1,3.41,3.41v3.19q5.19-7,11.64-7h.37a3.11,3.11,0,0,1,2.33,1,3.3,3.3,0,0,1,.93,2.37,3,3,0,0,1-1,2.3,3.47,3.47,0,0,1-2.45.89h-.37a12.64,12.64,0,0,0-6.52,1.74,15,15,0,0,0-5,4.78v22.54a3.16,3.16,0,0,1-1,2.37,3.36,3.36,0,0,1-2.41,1A3.23,3.23,0,0,1,802.83,129.61Z"/></g></g></svg>