<svg id="Layer_1" data-name="Layer 1" xmlns="http://www.w3.org/2000/svg" width="255.1" height="228" viewBox="0 0 255.1 228"><defs><style>.cls-1{fill:#fff;opacity:0.25;}</style></defs><title>x</title><path class="cls-1" d="M158.29,130.95,144.84,117.5a5.55,5.55,0,0,1,0-7.85L158.29,96.2a9.51,9.51,0,0,0,.89-12.68,9.25,9.25,0,0,0-13.69-.67L131.76,96.58a5.55,5.55,0,0,1-7.85,0L110.47,83.13a9.51,9.51,0,0,0-12.69-.89,9.25,9.25,0,0,0-.67,13.69l13.73,13.73a5.55,5.55,0,0,1,0,7.85L97.39,130.95a9.51,9.51,0,0,0-.89,12.68,9.25,9.25,0,0,0,13.69.67l13.73-13.73a5.55,5.55,0,0,1,7.85,0l13.73,13.73a9.25,9.25,0,0,0,13.69-.67A9.51,9.51,0,0,0,158.29,130.95Z"/></svg>