<svg xmlns="http://www.w3.org/2000/svg" width="66.8" height="66.88" viewBox="0 0 66.8 66.88"><defs><style>.cls-1{fill:#fff;opacity:0.25;}</style></defs><title>x</title><g id="Layer_2" data-name="Layer 2"><g id="Layer_1-2" data-name="Layer 1"><path class="cls-1" d="M63.89,50.81,50.44,37.36a5.55,5.55,0,0,1,0-7.85L63.89,16.07a9.51,9.51,0,0,0,.89-12.68,9.25,9.25,0,0,0-13.69-.67L37.36,16.44a5.55,5.55,0,0,1-7.85,0L16.07,3A9.51,9.51,0,0,0,3.38,2.1a9.25,9.25,0,0,0-.67,13.69L16.44,29.52a5.55,5.55,0,0,1,0,7.85L3,50.81A9.51,9.51,0,0,0,2.1,63.49a9.25,9.25,0,0,0,13.69.67L29.52,50.44a5.55,5.55,0,0,1,7.85,0L51.09,64.17a9.25,9.25,0,0,0,13.69-.67A9.51,9.51,0,0,0,63.89,50.81Z"/></g></g></svg>